<svg width="53" height="78" viewBox="0 0 53 78" fill="none" xmlns="http://www.w3.org/2000/svg">
<g id="rocket" clip-path="url(#clip0_12_136)">
<g id="Layer 2">
<g id="Layer 1">
<path id="Vector" d="M26.5511 6.35488C34.0812 14.9524 38.1009 25.5545 37.9551 36.4336V39.0305L40.4395 40.3901C43.6495 42.1378 46.0435 44.8485 47.1853 48.0282C46.1828 47.3644 45.134 46.7573 44.0453 46.2103L37.4203 42.8649L36.2298 49.6169C36.1267 50.2136 35.9885 50.8051 35.8158 51.3889H17.252C16.9759 50.6251 16.7517 49.8613 16.5446 49.067L15.0436 42.9565L8.93623 46.0117C7.91589 46.5249 6.93077 47.0911 5.98603 47.7074C7.15003 44.5644 9.49405 41.869 12.6283 40.0693L14.9919 38.7098V36.2961C15.0345 25.4612 19.1026 14.9397 26.5684 6.35488H26.5511ZM26.5684 0C26.1812 0.000845665 25.8074 0.125635 25.516 0.351351L25.3607 0.47356C15.4121 10.3255 9.88777 23.0651 9.83336 36.2808C5.61165 38.7061 2.48666 42.3677 1.00449 46.626C-0.477687 50.8842 -0.222788 55.4682 1.72464 59.577C3.77615 55.5652 7.20559 52.2292 11.5241 50.0446C11.9572 51.7058 12.534 53.335 13.2494 54.9177C13.3401 55.222 13.5412 55.4915 13.8217 55.6847C14.1023 55.8779 14.4467 55.9841 14.8021 55.9871H38.7487C39.2318 55.9871 39.7149 55.5746 39.9564 54.933C40.6546 53.4282 41.1413 51.8532 41.4056 50.2432C45.7324 52.4187 49.1647 55.7574 51.2051 59.7756C53.27 55.6871 53.5897 51.0741 52.1049 46.7928C50.62 42.5114 47.4315 38.8524 43.1309 36.4947C43.3015 23.201 37.8064 10.3389 27.7416 0.47356C27.5917 0.325184 27.4083 0.206353 27.2032 0.124772C26.9981 0.0431913 26.776 0.000681956 26.5511 0L26.5684 0Z" fill="#4EA8DE"/>
<path id="Vector_2" d="M26.5516 35.0129C25.2265 35.0129 23.931 34.6655 22.8285 34.0145C21.726 33.3636 20.8658 32.4382 20.3563 31.355C19.8469 30.2719 19.711 29.0794 19.9658 27.9279C20.2206 26.7765 20.8547 25.7176 21.7881 24.8847C22.7215 24.0519 23.9125 23.4823 25.2109 23.2479C26.5093 23.0135 27.8571 23.1246 29.0843 23.5674C30.3115 24.0101 31.3632 24.7646 32.1068 25.7358C32.8504 26.707 33.2527 27.8514 33.2629 29.0247V29.0247C33.2835 29.785 33.1348 30.5416 32.8251 31.251C32.5154 31.9604 32.0509 32.6089 31.4581 33.1593C30.8653 33.7097 30.1558 34.1514 29.3702 34.4589C28.5846 34.7665 27.7382 34.934 26.8794 34.9518C26.7709 34.9672 26.6602 34.9672 26.5516 34.9518V35.0129Z" fill="#4EA8DE"/>
<path id="Path 3417" d="M35.8853 59.7908C35.4537 59.7786 35.0236 59.8429 34.6203 59.9798C34.217 60.1167 33.8487 60.3236 33.5369 60.5882C33.2252 60.8529 32.9763 61.17 32.8048 61.521C32.6333 61.872 32.5427 62.2498 32.5383 62.6322V71.6451C32.5383 72.4311 32.891 73.1849 33.5186 73.7407C34.1463 74.2965 34.9977 74.6087 35.8853 74.6087C36.773 74.6087 37.6243 74.2965 38.252 73.7407C38.8797 73.1849 39.2323 72.4311 39.2323 71.6451V62.7544C39.2461 62.3735 39.1741 61.9939 39.0206 61.6378C38.867 61.2817 38.6349 60.9563 38.3378 60.6804C38.0407 60.4046 37.6846 60.1839 37.2902 60.0311C36.8958 59.8784 36.471 59.7967 36.0406 59.7908H35.8853Z" fill="#5E60CE"/>
<path id="Path 3418" d="M17.2525 59.7908C16.8135 59.7703 16.3743 59.8281 15.9611 59.9609C15.5478 60.0937 15.1689 60.2988 14.847 60.5638C14.5251 60.8289 14.2667 61.1487 14.0871 61.504C13.9076 61.8593 13.8106 62.243 13.802 62.6322V71.6451C13.802 72.4311 14.1546 73.1849 14.7823 73.7407C15.41 74.2965 16.2613 74.6087 17.149 74.6087C18.0367 74.6087 18.888 74.2965 19.5157 73.7407C20.1434 73.1849 20.496 72.4311 20.496 71.6451V62.7544C20.5098 62.3734 20.4378 61.9939 20.2842 61.6378C20.1307 61.2817 19.8986 60.9563 19.6015 60.6804C19.3044 60.4046 18.9483 60.1839 18.5539 60.0311C18.1595 59.8784 17.7347 59.7967 17.3043 59.7908H17.2525Z" fill="#5E60CE"/>
<path id="Path 3419" d="M26.3101 59.7908C25.8796 59.7827 25.4516 59.8498 25.0503 59.9882C24.6491 60.1266 24.2826 60.3337 23.9718 60.5975C23.661 60.8614 23.4119 61.1769 23.2389 61.526C23.0658 61.8751 22.9721 62.251 22.9631 62.6322V75.0517C22.9631 75.8377 23.3158 76.5915 23.9434 77.1473C24.5711 77.703 25.4225 78.0153 26.3101 78.0153C27.1978 78.0153 28.0491 77.703 28.6768 77.1473C29.3045 76.5915 29.6571 75.8377 29.6571 75.0517V62.8308C29.6709 62.4498 29.5989 62.0702 29.4454 61.7142C29.2918 61.3581 29.0597 61.0327 28.7626 60.7568C28.4655 60.481 28.1094 60.2603 27.715 60.1075C27.3206 59.9548 26.8958 59.8731 26.4654 59.8672L26.3101 59.7908Z" fill="#5E60CE"/>
</g>
</g>
</g>
<defs>
<clipPath id="clip0_12_136">
<rect width="53" height="78" fill="white"/>
</clipPath>
</defs>
</svg>
